<svg width="20" height="20" viewBox="0 0 20 20" fill="none" xmlns="http://www.w3.org/2000/svg">
<path d="M1.667 4.39199L2.733 3.33299L16.667 17.267L15.608 18.333L13.042 15.767C12.0602 16.089 11.0333 16.252 10 16.25C5.834 16.25 2.275 13.658 0.833 9.99999C1.40489 8.54495 2.3166 7.24784 3.492 6.21699L1.667 4.39199ZM10 7.49999C10.4 7.49985 10.7942 7.5957 11.1495 7.77947C11.5047 7.96324 11.8107 8.22958 12.0418 8.55612C12.2728 8.88266 12.4221 9.25986 12.4771 9.65605C12.5321 10.0522 12.4913 10.4559 12.358 10.833L9.168 7.64199C9.43528 7.54785 9.71662 7.49983 10 7.49999ZM10 3.74999C14.167 3.74999 17.725 6.34199 19.167 9.99999C18.4865 11.7276 17.3305 13.2271 15.833 14.325L14.65 13.133C15.8029 12.3365 16.7325 11.2579 17.35 9.99999C16.6766 8.6247 15.6308 7.46602 14.3314 6.65581C13.032 5.84559 11.5313 5.41637 10 5.41699C9.092 5.41699 8.2 5.56699 7.367 5.83299L6.084 4.55799C7.32079 4.02511 8.6533 3.75017 10 3.74999ZM2.65 9.99999C3.32336 11.3753 4.36923 12.534 5.66861 13.3442C6.96799 14.1544 8.46871 14.5836 10 14.583C10.575 14.583 11.142 14.525 11.667 14.408L9.767 12.5C9.1868 12.4385 8.64523 12.1799 8.23267 11.7673C7.82011 11.3548 7.5615 10.8132 7.5 10.233L4.667 7.39199C3.82503 8.1158 3.13883 9.00307 2.65 9.99999Z" fill="#F9FAFB"/>
</svg>
