<svg width="20" height="20" viewBox="0 0 20 20" fill="none" xmlns="http://www.w3.org/2000/svg">
<path d="M10 7.5C10.663 7.5 11.2989 7.76339 11.7678 8.23223C12.2366 8.70107 12.5 9.33696 12.5 10C12.5 10.663 12.2366 11.2989 11.7678 11.7678C11.2989 12.2366 10.663 12.5 10 12.5C9.33696 12.5 8.70107 12.2366 8.23223 11.7678C7.76339 11.2989 7.5 10.663 7.5 10C7.5 9.33696 7.76339 8.70107 8.23223 8.23223C8.70107 7.76339 9.33696 7.5 10 7.5ZM10 3.75C14.167 3.75 17.725 6.342 19.167 10C17.725 13.658 14.167 16.25 10 16.25C5.833 16.25 2.275 13.658 0.833 10C2.275 6.342 5.833 3.75 10 3.75ZM2.65 10C3.3235 11.3753 4.36936 12.5341 5.66868 13.3445C6.96799 14.155 8.46864 14.5846 10 14.5846C11.5314 14.5846 13.032 14.155 14.3313 13.3445C15.6306 12.5341 16.6765 11.3753 17.35 10C16.6762 8.625 15.6303 7.46657 14.331 6.65636C13.0317 5.84614 11.5312 5.41663 10 5.41663C8.4688 5.41663 6.96829 5.84614 5.66901 6.65636C4.36973 7.46657 3.32377 8.625 2.65 10Z" fill="#F9FAFB"/>
</svg>
