<svg width="25" height="25" viewBox="0 0 25 25" fill="none" xmlns="http://www.w3.org/2000/svg">
<circle cx="12.5" cy="12.5" r="12.5" fill="#093A3E"/>
<path d="M12.004 10.76H14.368V11.696H12.004V14.576C12.004 14.888 12.028 15.148 12.076 15.356C12.124 15.556 12.196 15.716 12.292 15.836C12.388 15.948 12.508 16.028 12.652 16.076C12.796 16.124 12.964 16.148 13.156 16.148C13.492 16.148 13.76 16.112 13.96 16.04C14.168 15.96 14.312 15.904 14.392 15.872L14.608 16.796C14.496 16.852 14.3 16.92 14.02 17C13.74 17.088 13.42 17.132 13.06 17.132C12.636 17.132 12.284 17.08 12.004 16.976C11.732 16.864 11.512 16.7 11.344 16.484C11.176 16.268 11.056 16.004 10.984 15.692C10.92 15.372 10.888 15.004 10.888 14.588V9.02L12.004 8.828V10.76Z" fill="#52DB63"/>
</svg>
