<svg width="40" height="40" viewBox="0 0 40 40" fill="none" xmlns="http://www.w3.org/2000/svg">
<path d="M26.5204 13.8931C26.36 13.7208 26.2351 13.5192 26.1529 13.2997C26.0706 13.0803 26.0327 12.8473 26.0412 12.6141C26.0497 12.381 26.1045 12.1521 26.2025 11.9407C26.3004 11.7293 26.4396 11.5395 26.612 11.382L24.9006 9.54042C24.8072 9.43995 24.6503 9.43346 24.549 9.52588L8.82288 23.8678C8.72016 23.9615 8.71359 24.1209 8.80825 24.2228L10.5181 26.0616C11.2439 25.4006 12.3791 25.4504 13.0542 26.1763C13.7293 26.9022 13.687 28.0249 12.9609 28.6867L14.6751 30.5303C14.768 30.6303 14.9239 30.6372 15.0254 30.546L30.9324 16.2373C31.0393 16.1412 31.0432 15.9749 30.9411 15.8738L29.0548 14.0071C28.7065 14.3249 28.2437 14.4914 27.7685 14.4701C27.2932 14.4487 26.8442 14.2412 26.5204 13.8931Z" fill="#5F8D69"/>
<g clip-path="url(#clip0_20_15)">
<path d="M16.608 22.6088C16.8873 22.9157 16.865 23.389 16.558 23.6682C16.251 23.9475 15.7778 23.9252 15.4985 23.6182C15.2192 23.3112 15.2416 22.838 15.5486 22.5587C15.8555 22.2794 16.3288 22.3018 16.608 22.6088Z" fill="#52DB63"/>
<path fill-rule="evenodd" clip-rule="evenodd" d="M17.7009 21.9525C18.4445 22.7698 18.3848 24.0341 17.5674 24.7778C16.7501 25.5214 15.4858 25.4617 14.7422 24.6443C13.9985 23.827 14.0583 22.5627 14.8756 21.8191C15.6929 21.0754 16.9572 21.1351 17.7009 21.9525ZM16.4492 25.0347C16.4341 24.9585 16.3028 24.2384 16.7244 23.8548C17.1442 23.4729 17.8516 23.6709 17.9249 23.6921C17.9886 23.4167 17.9846 23.13 17.913 22.8566C17.8415 22.5832 17.7046 22.3312 17.5141 22.1224C16.863 21.4068 15.7576 21.3546 15.042 22.0057C14.3263 22.6567 14.2741 23.7621 14.9252 24.4778C15.3256 24.9179 15.9007 25.1079 16.4492 25.0347Z" fill="#52DB63"/>
</g>
<g clip-path="url(#clip1_20_15)">
<path d="M20.3064 19.2439C20.5857 19.5509 20.5634 20.0241 20.2564 20.3034C19.9494 20.5827 19.4762 20.5604 19.1969 20.2534C18.9176 19.9464 18.94 19.4732 19.247 19.1939C19.5539 18.9146 20.0272 18.937 20.3064 19.2439Z" fill="#52DB63"/>
<path fill-rule="evenodd" clip-rule="evenodd" d="M21.3993 18.5877C22.1429 19.405 22.0832 20.6693 21.2658 21.4129C20.4485 22.1566 19.1842 22.0969 18.4406 21.2795C17.6969 20.4622 17.7566 19.1979 18.574 18.4542C19.3913 17.7106 20.6556 17.7703 21.3993 18.5877ZM20.1476 21.6698C20.1325 21.5937 20.0012 20.8736 20.4228 20.49C20.8426 20.1081 21.5499 20.3061 21.6233 20.3273C21.687 20.0519 21.683 19.7652 21.6114 19.4918C21.5399 19.2184 21.403 18.9664 21.2125 18.7576C20.5614 18.042 19.456 17.9897 18.7404 18.6408C18.0247 19.2919 17.9725 20.3973 18.6236 21.113C19.024 21.5531 19.5991 21.743 20.1476 21.6698Z" fill="#52DB63"/>
</g>
<g clip-path="url(#clip2_20_15)">
<path d="M24.0048 15.8791C24.2841 16.1861 24.2617 16.6593 23.9548 16.9386C23.6478 17.2179 23.1746 17.1955 22.8953 16.8886C22.616 16.5816 22.6384 16.1084 22.9453 15.8291C23.2523 15.5498 23.7255 15.5722 24.0048 15.8791Z" fill="#52DB63"/>
<path fill-rule="evenodd" clip-rule="evenodd" d="M25.0976 15.2228C25.8413 16.0402 25.7815 17.3045 24.9642 18.0481C24.1469 18.7918 22.8825 18.732 22.1389 17.9147C21.3953 17.0974 21.455 15.833 22.2724 15.0894C23.0897 14.3458 24.354 14.4055 25.0976 15.2228ZM23.846 18.305C23.8308 18.2289 23.6995 17.5088 24.1212 17.1252C24.5409 16.7433 25.2483 16.9413 25.3216 16.9625C25.3854 16.6871 25.3813 16.4004 25.3098 16.127C25.2382 15.8535 25.1013 15.6016 24.9109 15.3928C24.2598 14.6771 23.1544 14.6249 22.4387 15.276C21.7231 15.9271 21.6709 17.0325 22.322 17.7481C22.7224 18.1883 23.2974 18.3782 23.846 18.305Z" fill="#52DB63"/>
</g>
<defs>
<clipPath id="clip0_20_15">
<rect width="4" height="4" fill="white" transform="translate(13.3962 23.165) rotate(-42.2962)"/>
</clipPath>
<clipPath id="clip1_20_15">
<rect width="4" height="4" fill="white" transform="translate(17.0946 19.8002) rotate(-42.2962)"/>
</clipPath>
<clipPath id="clip2_20_15">
<rect width="4" height="4" fill="white" transform="translate(20.793 16.4353) rotate(-42.2962)"/>
</clipPath>
</defs>
</svg>
