<svg width="20" height="20" viewBox="0 0 20 20" fill="none" xmlns="http://www.w3.org/2000/svg">
<g clip-path="url(#clip0_215_8)">
<path d="M10.96 0.568333C11.2469 0.400812 11.5732 0.312534 11.9054 0.312534C12.2377 0.312534 12.5639 0.400812 12.8508 0.568333L12.8567 0.571667L18.6542 4.135C18.9395 4.30248 19.1762 4.54158 19.3408 4.82864C19.5054 5.11571 19.5922 5.44077 19.5925 5.77167V12.035C19.5925 12.71 19.2325 13.335 18.6483 13.675L18.6467 13.6758L8.67667 19.54L8.67333 19.5425C8.085 19.8842 7.35833 19.8842 6.77 19.5425L6.74833 19.53L1.32917 15.7783C1.05042 15.6099 0.819889 15.3723 0.659881 15.0887C0.499872 14.805 0.41581 14.4848 0.415833 14.1592V7.865C0.415833 7.53833 0.499167 7.22333 0.6525 6.94833L0.655 6.94333L0.666667 6.92167C0.830833 6.63667 1.06667 6.39917 1.35 6.2325H1.35167L10.96 0.568333ZM11.5908 1.6475H11.59L2.20667 7.18L7.41333 10.7192C7.51064 10.7716 7.61972 10.7984 7.73025 10.7969C7.84078 10.7954 7.94911 10.7658 8.045 10.7108L17.74 5.04083L12.2158 1.64583C12.1206 1.59136 12.0127 1.56291 11.903 1.56335C11.7933 1.56379 11.6856 1.5931 11.5908 1.64833V1.6475ZM7.0975 11.9417C6.98387 11.9021 6.87422 11.8518 6.77 11.7917L6.75083 11.78L1.66583 8.32417V14.16C1.66583 14.3892 1.78667 14.6 1.98167 14.7133L2.0025 14.725L7.0975 18.2517V11.9417ZM15 8.09083L12.2917 9.67417V15.9642L15 14.3708V8.09083ZM8.675 11.7892L8.67333 11.7908C8.56965 11.8509 8.46056 11.9011 8.3475 11.9408V18.2842L11.0417 16.6992V10.4058L8.675 11.7892ZM16.25 7.35917V13.6358L18.02 12.5942C18.1178 12.5371 18.199 12.4555 18.2556 12.3574C18.3121 12.2594 18.3421 12.1482 18.3425 12.035V6.13583L16.25 7.35917Z" fill="#272727"/>
</g>
<defs>
<clipPath id="clip0_215_8">
<rect width="20" height="20" fill="white"/>
</clipPath>
</defs>
</svg>
