<svg width="20" height="20" viewBox="0 0 20 20" fill="none" xmlns="http://www.w3.org/2000/svg">
<path d="M6.04175 5C5.87599 5 5.71702 5.06585 5.59981 5.18306C5.4826 5.30027 5.41675 5.45924 5.41675 5.625V11.875C5.41675 12.0408 5.4826 12.1997 5.59981 12.3169C5.71702 12.4342 5.87599 12.5 6.04175 12.5C6.20751 12.5 6.36648 12.4342 6.48369 12.3169C6.6009 12.1997 6.66675 12.0408 6.66675 11.875V5.625C6.66675 5.45924 6.6009 5.30027 6.48369 5.18306C6.36648 5.06585 6.20751 5 6.04175 5ZM10.0001 5C9.83432 5 9.67535 5.06585 9.55814 5.18306C9.44093 5.30027 9.37508 5.45924 9.37508 5.625V9.375C9.37508 9.54076 9.44093 9.69973 9.55814 9.81694C9.67535 9.93415 9.83432 10 10.0001 10C10.1658 10 10.3248 9.93415 10.442 9.81694C10.5592 9.69973 10.6251 9.54076 10.6251 9.375V5.625C10.6251 5.45924 10.5592 5.30027 10.442 5.18306C10.3248 5.06585 10.1658 5 10.0001 5ZM13.3334 5.625C13.3334 5.45924 13.3993 5.30027 13.5165 5.18306C13.6337 5.06585 13.7927 5 13.9584 5C14.1242 5 14.2831 5.06585 14.4004 5.18306C14.5176 5.30027 14.5834 5.45924 14.5834 5.625V13.5417C14.5834 13.7074 14.5176 13.8664 14.4004 13.9836C14.2831 14.1008 14.1242 14.1667 13.9584 14.1667C13.7927 14.1667 13.6337 14.1008 13.5165 13.9836C13.3993 13.8664 13.3334 13.7074 13.3334 13.5417V5.625Z" fill="#272727"/>
<path d="M3.12508 1.66675H16.8751C17.6801 1.66675 18.3334 2.32008 18.3334 3.12508V16.8751C18.3334 17.2619 18.1798 17.6328 17.9063 17.9063C17.6328 18.1798 17.2619 18.3334 16.8751 18.3334H3.12508C2.73831 18.3334 2.36737 18.1798 2.09388 17.9063C1.82039 17.6328 1.66675 17.2619 1.66675 16.8751V3.12508C1.66675 2.32008 2.32008 1.66675 3.12508 1.66675ZM2.91675 3.12508V16.8751C2.91675 16.9901 3.01008 17.0834 3.12508 17.0834H16.8751C16.9303 17.0834 16.9833 17.0615 17.0224 17.0224C17.0615 16.9833 17.0834 16.9303 17.0834 16.8751V3.12508C17.0834 3.06983 17.0615 3.01684 17.0224 2.97777C16.9833 2.9387 16.9303 2.91675 16.8751 2.91675H3.12508C3.06983 2.91675 3.01684 2.9387 2.97777 2.97777C2.9387 3.01684 2.91675 3.06983 2.91675 3.12508Z" fill="#272727"/>
</svg>
