<svg width="20" height="20" viewBox="0 0 20 20" fill="none" xmlns="http://www.w3.org/2000/svg">
<path d="M10 1.66667C5.3975 1.66667 1.66666 5.3975 1.66666 10C1.66666 14.6025 5.3975 18.3333 10 18.3333C14.6025 18.3333 18.3333 14.6025 18.3333 10C18.3333 5.3975 14.6025 1.66667 10 1.66667Z" stroke="white" stroke-width="1.25" stroke-linecap="round" stroke-linejoin="round"/>
<path d="M3.55917 15.2883C3.55917 15.2883 5.41667 12.9167 10 12.9167C14.5833 12.9167 16.4417 15.2883 16.4417 15.2883M10 10C10.663 10 11.2989 9.73661 11.7678 9.26777C12.2366 8.79893 12.5 8.16304 12.5 7.5C12.5 6.83696 12.2366 6.20107 11.7678 5.73223C11.2989 5.26339 10.663 5 10 5C9.33696 5 8.70107 5.26339 8.23223 5.73223C7.76339 6.20107 7.5 6.83696 7.5 7.5C7.5 8.16304 7.76339 8.79893 8.23223 9.26777C8.70107 9.73661 9.33696 10 10 10Z" stroke="white" stroke-width="1.25" stroke-linecap="round" stroke-linejoin="round"/>
</svg>
