<svg width="24" height="25" viewBox="0 0 24 25" fill="none" xmlns="http://www.w3.org/2000/svg">
<path fill-rule="evenodd" clip-rule="evenodd" d="M10.5 6.28927C9.17392 6.28927 7.90215 6.8117 6.96447 7.74163C6.02678 8.67157 5.5 9.93282 5.5 11.2479C5.5 12.5631 6.02678 13.8243 6.96447 14.7543C7.90215 15.6842 9.17392 16.2066 10.5 16.2066C11.8261 16.2066 13.0979 15.6842 14.0355 14.7543C14.9732 13.8243 15.5 12.5631 15.5 11.2479C15.5 9.93282 14.9732 8.67157 14.0355 7.74163C13.0979 6.8117 11.8261 6.28927 10.5 6.28927ZM4 11.2479C4 9.53829 4.68482 7.89865 5.90381 6.68974C7.12279 5.48083 8.77609 4.80167 10.5 4.80167C12.2239 4.80167 13.8772 5.48083 15.0962 6.68974C16.3152 7.89865 17 9.53829 17 11.2479C17 12.9576 16.3152 14.5972 15.0962 15.8062C13.8772 17.0151 12.2239 17.6942 10.5 17.6942C8.77609 17.6942 7.12279 17.0151 5.90381 15.8062C4.68482 14.5972 4 12.9576 4 11.2479Z" fill="#FAFAFA"/>
<path fill-rule="evenodd" clip-rule="evenodd" d="M14.4701 15.1851C14.6107 15.0459 14.8013 14.9676 15.0001 14.9676C15.1988 14.9676 15.3894 15.0459 15.5301 15.1851L19.5301 19.1521C19.6038 19.2202 19.6629 19.3023 19.7039 19.3935C19.7448 19.4848 19.7669 19.5833 19.7687 19.6831C19.7704 19.783 19.7519 19.8822 19.7142 19.9748C19.6765 20.0674 19.6203 20.1516 19.5491 20.2222C19.4779 20.2928 19.3931 20.3485 19.2997 20.3859C19.2063 20.4233 19.1063 20.4417 19.0056 20.4399C18.9048 20.4382 18.8055 20.4163 18.7135 20.3757C18.6215 20.335 18.5387 20.2764 18.4701 20.2033L14.4701 16.2364C14.3296 16.0969 14.2507 15.9079 14.2507 15.7108C14.2507 15.5137 14.3296 15.3246 14.4701 15.1851Z" fill="#FAFAFA"/>
</svg>
