<svg width="20" height="20" viewBox="0 0 20 20" fill="none" xmlns="http://www.w3.org/2000/svg">
<path fill-rule="evenodd" clip-rule="evenodd" d="M15.7093 5.376C15.7806 5.30482 15.8371 5.22031 15.8757 5.12728C15.9143 5.03425 15.9342 4.93453 15.9343 4.83381C15.9344 4.73308 15.9146 4.63334 15.8761 4.54026C15.8376 4.44718 15.7812 4.3626 15.71 4.29133C15.6388 4.22007 15.5543 4.16352 15.4613 4.12492C15.3682 4.08632 15.2685 4.06642 15.1678 4.06636C15.0671 4.0663 14.9673 4.08607 14.8743 4.12456C14.7812 4.16305 14.6966 4.21949 14.6253 4.29067L10 8.916L5.376 4.29067C5.23208 4.14674 5.03687 4.06589 4.83333 4.06589C4.62979 4.06589 4.43459 4.14674 4.29067 4.29067C4.14674 4.43459 4.06589 4.62979 4.06589 4.83333C4.06589 5.03687 4.14674 5.23208 4.29067 5.376L8.916 10L4.29067 14.624C4.2194 14.6953 4.16287 14.7799 4.12431 14.873C4.08574 14.9661 4.06589 15.0659 4.06589 15.1667C4.06589 15.2674 4.08574 15.3672 4.12431 15.4604C4.16287 15.5535 4.2194 15.6381 4.29067 15.7093C4.43459 15.8533 4.62979 15.9341 4.83333 15.9341C4.93412 15.9341 5.03391 15.9143 5.12702 15.8757C5.22013 15.8371 5.30474 15.7806 5.376 15.7093L10 11.084L14.6253 15.7093C14.7693 15.8531 14.9644 15.9338 15.1678 15.9336C15.3712 15.9335 15.5663 15.8526 15.71 15.7087C15.8537 15.5647 15.9344 15.3696 15.9343 15.1662C15.9342 14.9628 15.8533 14.7677 15.7093 14.624L11.084 10L15.7093 5.376Z" fill="#272727"/>
</svg>
